# xmcd
#
# Track frame offsets: 
#        150
#        5130
#        22415
#        39500
#        60112
#        72950
#        90727
#        107970
#        127262
#        149272
#        164892
#        178800
#        196592
#        214947
#        232790
#        255117
#        272690
#        291165
#
# Disc length: 4006 seconds
#
# Revision: 0
# Processed by: cddbd v1.5.2PL0 Copyright (c) Steve Scherf et al.
# Submitted via: ExactAudioCopy v0.95b4
#
DISCID=0c0fa412
DTITLE=Wilmer X - Pontiac Till Himmelen {Rem and Exp 2007}
DYEAR=1989
DGENRE=Rock
TTITLE0=Tand Dina Eldar (Intro)
TTITLE1=Slaget Om En Flickas Hjarta
TTITLE2=Sot Sak
TTITLE3=Full Storm Pa Havet
TTITLE4=Ah Du, Hur Fan Ser Du Ut
TTITLE5=Teddys Rum
TTITLE6=Ett Och Ett Ar Tva Men Blir Tre Nar Vi Tva Blir Ett
TTITLE7=Fanny I Fonstret
TTITLE8=Min Egen Metod
TTITLE9=Pontiac Till Himmelen
TTITLE10=Kan Du Ga Pa Vatten
TTITLE11=Hoppas Pa Regn
TTITLE12=Balladen Om Ljugar-Johnny
TTITLE13=Radio W.X.
TTITLE14=Hall Flamman Levande
TTITLE15=Lokomotiv 69
TTITLE16=Slapp Inte Taget
TTITLE17=Pontiac Blues
EXTD=
EXTT0=
EXTT1=
EXTT2=
EXTT3=
EXTT4=
EXTT5=
EXTT6=
EXTT7=
EXTT8=
EXTT9=
EXTT10=
EXTT11=
EXTT12=
EXTT13=
EXTT14=
EXTT15=
EXTT16=
EXTT17=
PLAYORDER=
